<?xml version="1.0" standalone="no"?>
<!DOCTYPE svg PUBLIC "-//W3C//DTD SVG 20010904//EN"
 "http://www.w3.org/TR/2001/REC-SVG-20010904/DTD/svg10.dtd">
<svg version="1.0" xmlns="http://www.w3.org/2000/svg"
 width="144.000000pt" height="144.000000pt" viewBox="0 0 144.000000 144.000000"
 preserveAspectRatio="xMidYMid meet">

<g transform="translate(0.000000,144.000000) scale(0.100000,-0.100000)"
fill="#000000" stroke="none">
<path d="M240 720 l0 -300 480 0 480 0 0 300 0 300 -480 0 -480 0 0 -300z
m920 0 l0 -260 -440 0 -440 0 0 260 0 260 440 0 440 0 0 -260z"/>
<path d="M536 915 c-9 -9 -16 -20 -16 -24 0 -30 76 -43 87 -15 15 39 -40 69
-71 39z"/>
<path d="M487 793 c-4 -3 -7 -15 -7 -25 0 -14 8 -18 35 -18 l35 0 0 -89 0 -90
-32 -3 c-25 -2 -34 -8 -36 -25 -3 -22 -1 -23 93 -23 94 0 96 1 93 23 -2 17
-11 23 -35 25 l-33 3 0 115 0 114 -53 0 c-30 0 -57 -3 -60 -7z"/>
<path d="M732 780 c-14 -14 -22 -33 -22 -55 0 -40 32 -69 94 -86 62 -17 96
-37 96 -58 0 -41 -70 -41 -134 -1 -26 17 -52 28 -57 25 -5 -4 -9 -24 -9 -46 0
-35 3 -39 25 -39 15 0 25 6 25 14 0 11 8 10 37 -5 86 -44 186 2 167 76 -8 32
-35 51 -115 79 -73 25 -94 49 -64 72 27 21 81 11 115 -21 38 -37 50 -32 50 20
0 34 -4 45 -15 45 -9 0 -18 -7 -21 -15 -5 -13 -8 -13 -27 0 -33 23 -118 20
-145 -5z"/>
</g>
</svg>
