<?xml version="1.0" standalone="no"?>
<!DOCTYPE svg PUBLIC "-//W3C//DTD SVG 20010904//EN"
 "http://www.w3.org/TR/2001/REC-SVG-20010904/DTD/svg10.dtd">
<svg version="1.0" xmlns="http://www.w3.org/2000/svg"
 width="144.000000pt" height="144.000000pt" viewBox="0 0 144.000000 144.000000"
 preserveAspectRatio="xMidYMid meet">

<g transform="translate(0.000000,144.000000) scale(0.100000,-0.100000)"
fill="#000000" stroke="none">
<path d="M615 1081 c-9 -31 5 -52 33 -49 33 4 50 31 33 52 -18 22 -58 20 -66
-3z"/>
<path d="M675 996 c-58 -26 -69 -48 -75 -156 -3 -54 -3 -150 -2 -214 l4 -116
44 0 44 0 0 59 0 59 38 -5 c95 -13 172 42 172 122 0 36 -5 48 -30 69 -17 14
-50 30 -73 36 -75 20 -90 26 -101 42 -15 24 10 48 50 48 31 0 64 -21 64 -41 0
-5 18 -9 40 -9 47 0 53 20 18 65 -40 51 -128 70 -193 41z m110 -228 c32 -14
39 -37 19 -59 -19 -21 -64 -25 -95 -9 -14 8 -19 21 -19 51 l0 41 36 -7 c20 -3
46 -11 59 -17z"/>
</g>
</svg>
