<?xml version="1.0" standalone="no"?>
<!DOCTYPE svg PUBLIC "-//W3C//DTD SVG 20010904//EN"
 "http://www.w3.org/TR/2001/REC-SVG-20010904/DTD/svg10.dtd">
<svg version="1.0" xmlns="http://www.w3.org/2000/svg"
 width="144.000000pt" height="144.000000pt" viewBox="0 0 144.000000 144.000000"
 preserveAspectRatio="xMidYMid meet">

<g transform="translate(0.000000,144.000000) scale(0.100000,-0.100000)"
fill="#000000" stroke="none">
<path d="M615 1081 c-9 -31 5 -52 33 -49 33 4 50 31 33 52 -18 22 -58 20 -66
-3z"/>
<path d="M804 996 c-38 -17 -74 -61 -74 -92 0 -63 42 -98 147 -124 41 -10 73
-32 73 -50 0 -16 -44 -40 -73 -40 -19 0 -38 10 -57 30 -21 23 -37 30 -64 30
-41 0 -46 -15 -20 -60 68 -115 294 -77 294 49 0 61 -28 87 -126 116 -86 27
-102 43 -72 73 27 27 108 5 108 -29 0 -5 18 -9 41 -9 40 0 41 1 34 28 -19 76
-125 115 -211 78z"/>
<path d="M480 815 l0 -185 40 0 40 0 0 185 0 185 -40 0 -40 0 0 -185z"/>
</g>
</svg>
